<svg xmlns="http://www.w3.org/2000/svg" xmlns:xlink="http://www.w3.org/1999/xlink" width="150" zoomAndPan="magnify" viewBox="0 0 112.5 37.5" height="50" preserveAspectRatio="xMidYMid meet" version="1.0"><defs><g/></defs><g fill="#1a655f" fill-opacity="1"><g transform="translate(0.252693, 25.039671)"><g><path d="M 7.265625 0 L 4.078125 -10.390625 L 4 -10.390625 C 4.113281 -8.273438 4.171875 -6.863281 4.171875 -6.15625 L 4.171875 0 L 1.671875 0 L 1.671875 -13.234375 L 5.484375 -13.234375 L 8.625 -3.109375 L 8.671875 -3.109375 L 12 -13.234375 L 15.828125 -13.234375 L 15.828125 0 L 13.203125 0 L 13.203125 -6.265625 C 13.203125 -6.554688 13.207031 -6.894531 13.21875 -7.28125 C 13.226562 -7.675781 13.269531 -8.707031 13.34375 -10.375 L 13.265625 -10.375 L 9.84375 0 Z M 7.265625 0 "/></g></g><g transform="translate(17.739207, 25.039671)"><g><path d="M 7.875 0 L 7.34375 -1.375 L 7.265625 -1.375 C 6.804688 -0.789062 6.328125 -0.382812 5.828125 -0.15625 C 5.335938 0.0703125 4.695312 0.1875 3.90625 0.1875 C 2.9375 0.1875 2.171875 -0.0859375 1.609375 -0.640625 C 1.054688 -1.203125 0.78125 -2 0.78125 -3.03125 C 0.78125 -4.101562 1.15625 -4.894531 1.90625 -5.40625 C 2.65625 -5.914062 3.789062 -6.195312 5.3125 -6.25 L 7.0625 -6.296875 L 7.0625 -6.75 C 7.0625 -7.769531 6.535156 -8.28125 5.484375 -8.28125 C 4.679688 -8.28125 3.734375 -8.035156 2.640625 -7.546875 L 1.71875 -9.421875 C 2.882812 -10.023438 4.175781 -10.328125 5.59375 -10.328125 C 6.957031 -10.328125 8 -10.03125 8.71875 -9.4375 C 9.445312 -8.851562 9.8125 -7.957031 9.8125 -6.75 L 9.8125 0 Z M 7.0625 -4.6875 L 6 -4.65625 C 5.195312 -4.632812 4.597656 -4.488281 4.203125 -4.21875 C 3.804688 -3.957031 3.609375 -3.550781 3.609375 -3 C 3.609375 -2.226562 4.054688 -1.84375 4.953125 -1.84375 C 5.585938 -1.84375 6.097656 -2.023438 6.484375 -2.390625 C 6.867188 -2.753906 7.0625 -3.242188 7.0625 -3.859375 Z M 7.0625 -4.6875 "/></g></g><g transform="translate(28.94108, 25.039671)"><g><path d="M 7.09375 -10.3125 C 7.46875 -10.3125 7.78125 -10.285156 8.03125 -10.234375 L 7.828125 -7.640625 C 7.597656 -7.703125 7.328125 -7.734375 7.015625 -7.734375 C 6.128906 -7.734375 5.441406 -7.503906 4.953125 -7.046875 C 4.460938 -6.597656 4.21875 -5.96875 4.21875 -5.15625 L 4.21875 0 L 1.453125 0 L 1.453125 -10.125 L 3.546875 -10.125 L 3.953125 -8.421875 L 4.078125 -8.421875 C 4.398438 -8.992188 4.828125 -9.453125 5.359375 -9.796875 C 5.890625 -10.140625 6.46875 -10.3125 7.09375 -10.3125 Z M 7.09375 -10.3125 "/></g></g><g transform="translate(37.36286, 25.039671)"><g><path d="M 1.328125 -12.734375 C 1.328125 -13.640625 1.828125 -14.09375 2.828125 -14.09375 C 3.835938 -14.09375 4.34375 -13.640625 4.34375 -12.734375 C 4.34375 -12.304688 4.21875 -11.972656 3.96875 -11.734375 C 3.71875 -11.503906 3.335938 -11.390625 2.828125 -11.390625 C 1.828125 -11.390625 1.328125 -11.835938 1.328125 -12.734375 Z M 4.21875 0 L 1.453125 0 L 1.453125 -10.125 L 4.21875 -10.125 Z M 4.21875 0 "/></g></g><g transform="translate(43.022659, 25.039671)"><g><path d="M 5.640625 -8.34375 C 5.054688 -8.34375 4.597656 -8.15625 4.265625 -7.78125 C 3.929688 -7.414062 3.738281 -6.894531 3.6875 -6.21875 L 7.578125 -6.21875 C 7.554688 -6.894531 7.375 -7.414062 7.03125 -7.78125 C 6.6875 -8.15625 6.222656 -8.34375 5.640625 -8.34375 Z M 6.03125 0.1875 C 4.40625 0.1875 3.128906 -0.257812 2.203125 -1.15625 C 1.285156 -2.0625 0.828125 -3.335938 0.828125 -4.984375 C 0.828125 -6.679688 1.25 -7.992188 2.09375 -8.921875 C 2.945312 -9.847656 4.125 -10.3125 5.625 -10.3125 C 7.050781 -10.3125 8.160156 -9.90625 8.953125 -9.09375 C 9.753906 -8.28125 10.15625 -7.15625 10.15625 -5.71875 L 10.15625 -4.375 L 3.625 -4.375 C 3.65625 -3.59375 3.890625 -2.976562 4.328125 -2.53125 C 4.765625 -2.09375 5.375 -1.875 6.15625 -1.875 C 6.769531 -1.875 7.347656 -1.9375 7.890625 -2.0625 C 8.429688 -2.1875 9 -2.390625 9.59375 -2.671875 L 9.59375 -0.53125 C 9.101562 -0.289062 8.582031 -0.113281 8.03125 0 C 7.488281 0.125 6.820312 0.1875 6.03125 0.1875 Z M 6.03125 0.1875 "/></g></g><g transform="translate(53.980029, 25.039671)"><g/></g><g transform="translate(58.797649, 25.039671)"><g><path d="M 9.484375 -3.671875 C 9.484375 -2.484375 9.050781 -1.539062 8.1875 -0.84375 C 7.332031 -0.15625 6.132812 0.1875 4.59375 0.1875 C 3.1875 0.1875 1.9375 -0.078125 0.84375 -0.609375 L 0.84375 -3.21875 C 1.738281 -2.820312 2.492188 -2.539062 3.109375 -2.375 C 3.734375 -2.21875 4.300781 -2.140625 4.8125 -2.140625 C 5.425781 -2.140625 5.898438 -2.253906 6.234375 -2.484375 C 6.566406 -2.722656 6.734375 -3.078125 6.734375 -3.546875 C 6.734375 -3.804688 6.660156 -4.035156 6.515625 -4.234375 C 6.367188 -4.429688 6.15625 -4.625 5.875 -4.8125 C 5.59375 -5 5.019531 -5.300781 4.15625 -5.71875 C 3.34375 -6.09375 2.734375 -6.453125 2.328125 -6.796875 C 1.929688 -7.148438 1.609375 -7.5625 1.359375 -8.03125 C 1.117188 -8.5 1 -9.039062 1 -9.65625 C 1 -10.832031 1.394531 -11.753906 2.1875 -12.421875 C 2.988281 -13.097656 4.085938 -13.4375 5.484375 -13.4375 C 6.171875 -13.4375 6.828125 -13.351562 7.453125 -13.1875 C 8.078125 -13.019531 8.734375 -12.789062 9.421875 -12.5 L 8.515625 -10.3125 C 7.804688 -10.601562 7.21875 -10.804688 6.75 -10.921875 C 6.289062 -11.035156 5.835938 -11.09375 5.390625 -11.09375 C 4.859375 -11.09375 4.453125 -10.96875 4.171875 -10.71875 C 3.890625 -10.46875 3.75 -10.144531 3.75 -9.75 C 3.75 -9.5 3.804688 -9.28125 3.921875 -9.09375 C 4.035156 -8.914062 4.21875 -8.738281 4.46875 -8.5625 C 4.71875 -8.394531 5.3125 -8.085938 6.25 -7.640625 C 7.488281 -7.046875 8.335938 -6.453125 8.796875 -5.859375 C 9.253906 -5.265625 9.484375 -4.535156 9.484375 -3.671875 Z M 9.484375 -3.671875 "/></g></g><g transform="translate(69.012454, 25.039671)"><g><path d="M 7.875 0 L 7.34375 -1.375 L 7.265625 -1.375 C 6.804688 -0.789062 6.328125 -0.382812 5.828125 -0.15625 C 5.335938 0.0703125 4.695312 0.1875 3.90625 0.1875 C 2.9375 0.1875 2.171875 -0.0859375 1.609375 -0.640625 C 1.054688 -1.203125 0.78125 -2 0.78125 -3.03125 C 0.78125 -4.101562 1.15625 -4.894531 1.90625 -5.40625 C 2.65625 -5.914062 3.789062 -6.195312 5.3125 -6.25 L 7.0625 -6.296875 L 7.0625 -6.75 C 7.0625 -7.769531 6.535156 -8.28125 5.484375 -8.28125 C 4.679688 -8.28125 3.734375 -8.035156 2.640625 -7.546875 L 1.71875 -9.421875 C 2.882812 -10.023438 4.175781 -10.328125 5.59375 -10.328125 C 6.957031 -10.328125 8 -10.03125 8.71875 -9.4375 C 9.445312 -8.851562 9.8125 -7.957031 9.8125 -6.75 L 9.8125 0 Z M 7.0625 -4.6875 L 6 -4.65625 C 5.195312 -4.632812 4.597656 -4.488281 4.203125 -4.21875 C 3.804688 -3.957031 3.609375 -3.550781 3.609375 -3 C 3.609375 -2.226562 4.054688 -1.84375 4.953125 -1.84375 C 5.585938 -1.84375 6.097656 -2.023438 6.484375 -2.390625 C 6.867188 -2.753906 7.0625 -3.242188 7.0625 -3.859375 Z M 7.0625 -4.6875 "/></g></g><g transform="translate(80.214327, 25.039671)"><g><path d="M 5.71875 -2.015625 C 6.195312 -2.015625 6.773438 -2.125 7.453125 -2.34375 L 7.453125 -0.28125 C 6.765625 0.03125 5.921875 0.1875 4.921875 0.1875 C 3.816406 0.1875 3.007812 -0.09375 2.5 -0.65625 C 2 -1.21875 1.75 -2.054688 1.75 -3.171875 L 1.75 -8.046875 L 0.421875 -8.046875 L 0.421875 -9.21875 L 1.953125 -10.140625 L 2.75 -12.28125 L 4.515625 -12.28125 L 4.515625 -10.125 L 7.34375 -10.125 L 7.34375 -8.046875 L 4.515625 -8.046875 L 4.515625 -3.171875 C 4.515625 -2.773438 4.625 -2.484375 4.84375 -2.296875 C 5.0625 -2.109375 5.351562 -2.015625 5.71875 -2.015625 Z M 5.71875 -2.015625 "/></g></g><g transform="translate(88.264824, 25.039671)"><g><path d="M 1.328125 -12.734375 C 1.328125 -13.640625 1.828125 -14.09375 2.828125 -14.09375 C 3.835938 -14.09375 4.34375 -13.640625 4.34375 -12.734375 C 4.34375 -12.304688 4.21875 -11.972656 3.96875 -11.734375 C 3.71875 -11.503906 3.335938 -11.390625 2.828125 -11.390625 C 1.828125 -11.390625 1.328125 -11.835938 1.328125 -12.734375 Z M 4.21875 0 L 1.453125 0 L 1.453125 -10.125 L 4.21875 -10.125 Z M 4.21875 0 "/></g></g><g transform="translate(93.924623, 25.039671)"><g><path d="M 0.640625 4.453125 C -0.0664062 4.453125 -0.675781 4.378906 -1.1875 4.234375 L -1.1875 2.0625 C -0.757812 2.175781 -0.328125 2.234375 0.109375 2.234375 C 0.578125 2.234375 0.914062 2.101562 1.125 1.84375 C 1.34375 1.582031 1.453125 1.195312 1.453125 0.6875 L 1.453125 -10.125 L 4.21875 -10.125 L 4.21875 1.09375 C 4.21875 2.164062 3.90625 2.992188 3.28125 3.578125 C 2.65625 4.160156 1.773438 4.453125 0.640625 4.453125 Z M 1.328125 -12.734375 C 1.328125 -13.640625 1.828125 -14.09375 2.828125 -14.09375 C 3.835938 -14.09375 4.34375 -13.640625 4.34375 -12.734375 C 4.34375 -12.304688 4.21875 -11.972656 3.96875 -11.734375 C 3.71875 -11.503906 3.335938 -11.390625 2.828125 -11.390625 C 1.828125 -11.390625 1.328125 -11.835938 1.328125 -12.734375 Z M 1.328125 -12.734375 "/></g></g><g transform="translate(99.584421, 25.039671)"><g><path d="M 7.875 0 L 7.34375 -1.375 L 7.265625 -1.375 C 6.804688 -0.789062 6.328125 -0.382812 5.828125 -0.15625 C 5.335938 0.0703125 4.695312 0.1875 3.90625 0.1875 C 2.9375 0.1875 2.171875 -0.0859375 1.609375 -0.640625 C 1.054688 -1.203125 0.78125 -2 0.78125 -3.03125 C 0.78125 -4.101562 1.15625 -4.894531 1.90625 -5.40625 C 2.65625 -5.914062 3.789062 -6.195312 5.3125 -6.25 L 7.0625 -6.296875 L 7.0625 -6.75 C 7.0625 -7.769531 6.535156 -8.28125 5.484375 -8.28125 C 4.679688 -8.28125 3.734375 -8.035156 2.640625 -7.546875 L 1.71875 -9.421875 C 2.882812 -10.023438 4.175781 -10.328125 5.59375 -10.328125 C 6.957031 -10.328125 8 -10.03125 8.71875 -9.4375 C 9.445312 -8.851562 9.8125 -7.957031 9.8125 -6.75 L 9.8125 0 Z M 7.0625 -4.6875 L 6 -4.65625 C 5.195312 -4.632812 4.597656 -4.488281 4.203125 -4.21875 C 3.804688 -3.957031 3.609375 -3.550781 3.609375 -3 C 3.609375 -2.226562 4.054688 -1.84375 4.953125 -1.84375 C 5.585938 -1.84375 6.097656 -2.023438 6.484375 -2.390625 C 6.867188 -2.753906 7.0625 -3.242188 7.0625 -3.859375 Z M 7.0625 -4.6875 "/></g></g></g><g fill="#a6370f" fill-opacity="1"><g transform="translate(0.961439, 24.330926)"><g><path d="M 7.265625 0 L 4.078125 -10.390625 L 4 -10.390625 C 4.113281 -8.273438 4.171875 -6.863281 4.171875 -6.15625 L 4.171875 0 L 1.671875 0 L 1.671875 -13.234375 L 5.484375 -13.234375 L 8.625 -3.109375 L 8.671875 -3.109375 L 12 -13.234375 L 15.828125 -13.234375 L 15.828125 0 L 13.203125 0 L 13.203125 -6.265625 C 13.203125 -6.554688 13.207031 -6.894531 13.21875 -7.28125 C 13.226562 -7.675781 13.269531 -8.707031 13.34375 -10.375 L 13.265625 -10.375 L 9.84375 0 Z M 7.265625 0 "/></g></g><g transform="translate(18.447952, 24.330926)"><g><path d="M 7.875 0 L 7.34375 -1.375 L 7.265625 -1.375 C 6.804688 -0.789062 6.328125 -0.382812 5.828125 -0.15625 C 5.335938 0.0703125 4.695312 0.1875 3.90625 0.1875 C 2.9375 0.1875 2.171875 -0.0859375 1.609375 -0.640625 C 1.054688 -1.203125 0.78125 -2 0.78125 -3.03125 C 0.78125 -4.101562 1.15625 -4.894531 1.90625 -5.40625 C 2.65625 -5.914062 3.789062 -6.195312 5.3125 -6.25 L 7.0625 -6.296875 L 7.0625 -6.75 C 7.0625 -7.769531 6.535156 -8.28125 5.484375 -8.28125 C 4.679688 -8.28125 3.734375 -8.035156 2.640625 -7.546875 L 1.71875 -9.421875 C 2.882812 -10.023438 4.175781 -10.328125 5.59375 -10.328125 C 6.957031 -10.328125 8 -10.03125 8.71875 -9.4375 C 9.445312 -8.851562 9.8125 -7.957031 9.8125 -6.75 L 9.8125 0 Z M 7.0625 -4.6875 L 6 -4.65625 C 5.195312 -4.632812 4.597656 -4.488281 4.203125 -4.21875 C 3.804688 -3.957031 3.609375 -3.550781 3.609375 -3 C 3.609375 -2.226562 4.054688 -1.84375 4.953125 -1.84375 C 5.585938 -1.84375 6.097656 -2.023438 6.484375 -2.390625 C 6.867188 -2.753906 7.0625 -3.242188 7.0625 -3.859375 Z M 7.0625 -4.6875 "/></g></g><g transform="translate(29.649825, 24.330926)"><g><path d="M 7.09375 -10.3125 C 7.46875 -10.3125 7.78125 -10.285156 8.03125 -10.234375 L 7.828125 -7.640625 C 7.597656 -7.703125 7.328125 -7.734375 7.015625 -7.734375 C 6.128906 -7.734375 5.441406 -7.503906 4.953125 -7.046875 C 4.460938 -6.597656 4.21875 -5.96875 4.21875 -5.15625 L 4.21875 0 L 1.453125 0 L 1.453125 -10.125 L 3.546875 -10.125 L 3.953125 -8.421875 L 4.078125 -8.421875 C 4.398438 -8.992188 4.828125 -9.453125 5.359375 -9.796875 C 5.890625 -10.140625 6.46875 -10.3125 7.09375 -10.3125 Z M 7.09375 -10.3125 "/></g></g><g transform="translate(38.071606, 24.330926)"><g><path d="M 1.328125 -12.734375 C 1.328125 -13.640625 1.828125 -14.09375 2.828125 -14.09375 C 3.835938 -14.09375 4.34375 -13.640625 4.34375 -12.734375 C 4.34375 -12.304688 4.21875 -11.972656 3.96875 -11.734375 C 3.71875 -11.503906 3.335938 -11.390625 2.828125 -11.390625 C 1.828125 -11.390625 1.328125 -11.835938 1.328125 -12.734375 Z M 4.21875 0 L 1.453125 0 L 1.453125 -10.125 L 4.21875 -10.125 Z M 4.21875 0 "/></g></g><g transform="translate(43.731404, 24.330926)"><g><path d="M 5.640625 -8.34375 C 5.054688 -8.34375 4.597656 -8.15625 4.265625 -7.78125 C 3.929688 -7.414062 3.738281 -6.894531 3.6875 -6.21875 L 7.578125 -6.21875 C 7.554688 -6.894531 7.375 -7.414062 7.03125 -7.78125 C 6.6875 -8.15625 6.222656 -8.34375 5.640625 -8.34375 Z M 6.03125 0.1875 C 4.40625 0.1875 3.128906 -0.257812 2.203125 -1.15625 C 1.285156 -2.0625 0.828125 -3.335938 0.828125 -4.984375 C 0.828125 -6.679688 1.25 -7.992188 2.09375 -8.921875 C 2.945312 -9.847656 4.125 -10.3125 5.625 -10.3125 C 7.050781 -10.3125 8.160156 -9.90625 8.953125 -9.09375 C 9.753906 -8.28125 10.15625 -7.15625 10.15625 -5.71875 L 10.15625 -4.375 L 3.625 -4.375 C 3.65625 -3.59375 3.890625 -2.976562 4.328125 -2.53125 C 4.765625 -2.09375 5.375 -1.875 6.15625 -1.875 C 6.769531 -1.875 7.347656 -1.9375 7.890625 -2.0625 C 8.429688 -2.1875 9 -2.390625 9.59375 -2.671875 L 9.59375 -0.53125 C 9.101562 -0.289062 8.582031 -0.113281 8.03125 0 C 7.488281 0.125 6.820312 0.1875 6.03125 0.1875 Z M 6.03125 0.1875 "/></g></g><g transform="translate(54.688774, 24.330926)"><g/></g><g transform="translate(59.506395, 24.330926)"><g><path d="M 9.484375 -3.671875 C 9.484375 -2.484375 9.050781 -1.539062 8.1875 -0.84375 C 7.332031 -0.15625 6.132812 0.1875 4.59375 0.1875 C 3.1875 0.1875 1.9375 -0.078125 0.84375 -0.609375 L 0.84375 -3.21875 C 1.738281 -2.820312 2.492188 -2.539062 3.109375 -2.375 C 3.734375 -2.21875 4.300781 -2.140625 4.8125 -2.140625 C 5.425781 -2.140625 5.898438 -2.253906 6.234375 -2.484375 C 6.566406 -2.722656 6.734375 -3.078125 6.734375 -3.546875 C 6.734375 -3.804688 6.660156 -4.035156 6.515625 -4.234375 C 6.367188 -4.429688 6.15625 -4.625 5.875 -4.8125 C 5.59375 -5 5.019531 -5.300781 4.15625 -5.71875 C 3.34375 -6.09375 2.734375 -6.453125 2.328125 -6.796875 C 1.929688 -7.148438 1.609375 -7.5625 1.359375 -8.03125 C 1.117188 -8.5 1 -9.039062 1 -9.65625 C 1 -10.832031 1.394531 -11.753906 2.1875 -12.421875 C 2.988281 -13.097656 4.085938 -13.4375 5.484375 -13.4375 C 6.171875 -13.4375 6.828125 -13.351562 7.453125 -13.1875 C 8.078125 -13.019531 8.734375 -12.789062 9.421875 -12.5 L 8.515625 -10.3125 C 7.804688 -10.601562 7.21875 -10.804688 6.75 -10.921875 C 6.289062 -11.035156 5.835938 -11.09375 5.390625 -11.09375 C 4.859375 -11.09375 4.453125 -10.96875 4.171875 -10.71875 C 3.890625 -10.46875 3.75 -10.144531 3.75 -9.75 C 3.75 -9.5 3.804688 -9.28125 3.921875 -9.09375 C 4.035156 -8.914062 4.21875 -8.738281 4.46875 -8.5625 C 4.71875 -8.394531 5.3125 -8.085938 6.25 -7.640625 C 7.488281 -7.046875 8.335938 -6.453125 8.796875 -5.859375 C 9.253906 -5.265625 9.484375 -4.535156 9.484375 -3.671875 Z M 9.484375 -3.671875 "/></g></g><g transform="translate(69.721199, 24.330926)"><g><path d="M 7.875 0 L 7.34375 -1.375 L 7.265625 -1.375 C 6.804688 -0.789062 6.328125 -0.382812 5.828125 -0.15625 C 5.335938 0.0703125 4.695312 0.1875 3.90625 0.1875 C 2.9375 0.1875 2.171875 -0.0859375 1.609375 -0.640625 C 1.054688 -1.203125 0.78125 -2 0.78125 -3.03125 C 0.78125 -4.101562 1.15625 -4.894531 1.90625 -5.40625 C 2.65625 -5.914062 3.789062 -6.195312 5.3125 -6.25 L 7.0625 -6.296875 L 7.0625 -6.75 C 7.0625 -7.769531 6.535156 -8.28125 5.484375 -8.28125 C 4.679688 -8.28125 3.734375 -8.035156 2.640625 -7.546875 L 1.71875 -9.421875 C 2.882812 -10.023438 4.175781 -10.328125 5.59375 -10.328125 C 6.957031 -10.328125 8 -10.03125 8.71875 -9.4375 C 9.445312 -8.851562 9.8125 -7.957031 9.8125 -6.75 L 9.8125 0 Z M 7.0625 -4.6875 L 6 -4.65625 C 5.195312 -4.632812 4.597656 -4.488281 4.203125 -4.21875 C 3.804688 -3.957031 3.609375 -3.550781 3.609375 -3 C 3.609375 -2.226562 4.054688 -1.84375 4.953125 -1.84375 C 5.585938 -1.84375 6.097656 -2.023438 6.484375 -2.390625 C 6.867188 -2.753906 7.0625 -3.242188 7.0625 -3.859375 Z M 7.0625 -4.6875 "/></g></g><g transform="translate(80.923072, 24.330926)"><g><path d="M 5.71875 -2.015625 C 6.195312 -2.015625 6.773438 -2.125 7.453125 -2.34375 L 7.453125 -0.28125 C 6.765625 0.03125 5.921875 0.1875 4.921875 0.1875 C 3.816406 0.1875 3.007812 -0.09375 2.5 -0.65625 C 2 -1.21875 1.75 -2.054688 1.75 -3.171875 L 1.75 -8.046875 L 0.421875 -8.046875 L 0.421875 -9.21875 L 1.953125 -10.140625 L 2.75 -12.28125 L 4.515625 -12.28125 L 4.515625 -10.125 L 7.34375 -10.125 L 7.34375 -8.046875 L 4.515625 -8.046875 L 4.515625 -3.171875 C 4.515625 -2.773438 4.625 -2.484375 4.84375 -2.296875 C 5.0625 -2.109375 5.351562 -2.015625 5.71875 -2.015625 Z M 5.71875 -2.015625 "/></g></g><g transform="translate(88.97357, 24.330926)"><g><path d="M 1.328125 -12.734375 C 1.328125 -13.640625 1.828125 -14.09375 2.828125 -14.09375 C 3.835938 -14.09375 4.34375 -13.640625 4.34375 -12.734375 C 4.34375 -12.304688 4.21875 -11.972656 3.96875 -11.734375 C 3.71875 -11.503906 3.335938 -11.390625 2.828125 -11.390625 C 1.828125 -11.390625 1.328125 -11.835938 1.328125 -12.734375 Z M 4.21875 0 L 1.453125 0 L 1.453125 -10.125 L 4.21875 -10.125 Z M 4.21875 0 "/></g></g><g transform="translate(94.633368, 24.330926)"><g><path d="M 0.640625 4.453125 C -0.0664062 4.453125 -0.675781 4.378906 -1.1875 4.234375 L -1.1875 2.0625 C -0.757812 2.175781 -0.328125 2.234375 0.109375 2.234375 C 0.578125 2.234375 0.914062 2.101562 1.125 1.84375 C 1.34375 1.582031 1.453125 1.195312 1.453125 0.6875 L 1.453125 -10.125 L 4.21875 -10.125 L 4.21875 1.09375 C 4.21875 2.164062 3.90625 2.992188 3.28125 3.578125 C 2.65625 4.160156 1.773438 4.453125 0.640625 4.453125 Z M 1.328125 -12.734375 C 1.328125 -13.640625 1.828125 -14.09375 2.828125 -14.09375 C 3.835938 -14.09375 4.34375 -13.640625 4.34375 -12.734375 C 4.34375 -12.304688 4.21875 -11.972656 3.96875 -11.734375 C 3.71875 -11.503906 3.335938 -11.390625 2.828125 -11.390625 C 1.828125 -11.390625 1.328125 -11.835938 1.328125 -12.734375 Z M 1.328125 -12.734375 "/></g></g><g transform="translate(100.293167, 24.330926)"><g><path d="M 7.875 0 L 7.34375 -1.375 L 7.265625 -1.375 C 6.804688 -0.789062 6.328125 -0.382812 5.828125 -0.15625 C 5.335938 0.0703125 4.695312 0.1875 3.90625 0.1875 C 2.9375 0.1875 2.171875 -0.0859375 1.609375 -0.640625 C 1.054688 -1.203125 0.78125 -2 0.78125 -3.03125 C 0.78125 -4.101562 1.15625 -4.894531 1.90625 -5.40625 C 2.65625 -5.914062 3.789062 -6.195312 5.3125 -6.25 L 7.0625 -6.296875 L 7.0625 -6.75 C 7.0625 -7.769531 6.535156 -8.28125 5.484375 -8.28125 C 4.679688 -8.28125 3.734375 -8.035156 2.640625 -7.546875 L 1.71875 -9.421875 C 2.882812 -10.023438 4.175781 -10.328125 5.59375 -10.328125 C 6.957031 -10.328125 8 -10.03125 8.71875 -9.4375 C 9.445312 -8.851562 9.8125 -7.957031 9.8125 -6.75 L 9.8125 0 Z M 7.0625 -4.6875 L 6 -4.65625 C 5.195312 -4.632812 4.597656 -4.488281 4.203125 -4.21875 C 3.804688 -3.957031 3.609375 -3.550781 3.609375 -3 C 3.609375 -2.226562 4.054688 -1.84375 4.953125 -1.84375 C 5.585938 -1.84375 6.097656 -2.023438 6.484375 -2.390625 C 6.867188 -2.753906 7.0625 -3.242188 7.0625 -3.859375 Z M 7.0625 -4.6875 "/></g></g></g></svg>