<?xml version="1.0" standalone="no"?>
<!DOCTYPE svg PUBLIC "-//W3C//DTD SVG 20010904//EN"
 "http://www.w3.org/TR/2001/REC-SVG-20010904/DTD/svg10.dtd">
<svg version="1.0" xmlns="http://www.w3.org/2000/svg"
 width="558.000000pt" height="558.000000pt" viewBox="0 0 558.000000 558.000000"
 preserveAspectRatio="xMidYMid meet">
<metadata>
Created by potrace 1.14, written by Peter Selinger 2001-2017
</metadata>
<g transform="translate(0.000000,558.000000) scale(0.100000,-0.100000)"
fill="#000000" stroke="none">
<path d="M0 2790 l0 -2790 2790 0 2790 0 0 2790 0 2790 -2790 0 -2790 0 0
-2790z m1927 1578 c22 -68 216 -698 433 -1400 217 -703 399 -1276 404 -1275 7
2 473 1412 839 2537 l83 255 532 3 532 2 0 -1830 0 -1830 -366 0 -366 0 5
1128 c4 800 9 1214 20 1427 8 165 13 302 11 304 -2 3 -8 0 -13 -5 -5 -5 -219
-649 -477 -1432 l-468 -1422 -358 0 -357 0 -22 72 c-192 631 -858 2790 -862
2795 -4 3 -9 4 -12 1 -3 -3 1 -138 10 -299 29 -565 35 -840 35 -1701 l0 -868
-350 0 -350 0 0 1830 0 1830 530 0 529 0 38 -122z"/>
</g>
</svg>
